<?xml version="1.0" encoding="UTF-8"?>
<svg width="100px" height="131px" viewBox="0 0 100 131" version="1.1" xmlns="http://www.w3.org/2000/svg" xmlns:xlink="http://www.w3.org/1999/xlink">
    <title>Path</title>
    <g id="Page-1" stroke="none" stroke-width="1" fill="none" fill-rule="evenodd">
        <path d="M7.58293916,130.568813 C11.0583923,130.568813 13.2701031,129.30499 16.745718,125.908461 L49.0521933,93.917957 C49.3681288,93.6020215 49.6840644,93.3650293 50,93.3650293 C50.3159356,93.3650293 50.6318712,93.6020215 50.9478067,93.917957 L83.254282,125.908461 C86.7298969,129.30499 88.9416077,130.568813 92.4170608,130.568813 C97.156418,130.568813 100,126.935312 100,122.195987 C100,119.589348 98.8941446,116.350807 97.7882892,113.349224 L59.3996092,8.84684323 C57.1880601,2.76463851 53.8704939,0 50,0 C46.0505626,0 42.8119399,2.76463851 40.6003908,8.84684323 L2.21169463,113.349224 C1.10583923,116.350807 0,119.589348 0,122.195987 C0,126.935312 2.84359814,130.568813 7.58293916,130.568813 Z" id="Path" fill="#4389F7"></path>
    </g>
</svg>