<?xml version="1.0" encoding="UTF-8"?>
<svg width="32px" height="40px" viewBox="0 0 32 40" version="1.1" xmlns="http://www.w3.org/2000/svg" xmlns:xlink="http://www.w3.org/1999/xlink">
    <title>canyon_pin_favorite</title>
    <defs>
        <linearGradient x1="50%" y1="0%" x2="50%" y2="165.149562%" id="linearGradient-1">
            <stop stop-color="#956055" offset="0%"></stop>
            <stop stop-color="#5A5A5A" offset="100%"></stop>
        </linearGradient>
    </defs>
    <g id="Page-1" stroke="none" stroke-width="1" fill="none" fill-rule="evenodd">
        <g id="canyon_pin_favorite">
            <path d="M16,0.5 C20.2802068,0.5 24.1552068,2.23489659 26.9601551,5.03984489 C29.7651034,7.84479319 31.5,11.7197932 31.5,16 C31.5,24.5259804 21.4111043,34.0113732 15.9922532,38.5580017 C15.4473218,38.0234833 14.8917727,37.485466 14.3305229,36.9435338 L13.6567132,36.2933433 C13.2066016,35.8590739 12.7541833,35.4222698 12.3026885,34.9834197 L11.6250148,34.3221859 C5.97521076,28.7854489 0.5,22.8161042 0.5,16 C0.5,11.7197932 2.23489659,7.84479319 5.03984489,5.03984489 C7.84479319,2.23489659 11.7197932,0.5 16,0.5 Z" id="Oval" stroke="url(#linearGradient-1)" fill="#AB776C"></path>
            <path d="M8.77680523,25.7956559 C9.26056094,26.1617502 9.84893493,26.0179276 10.5549676,25.5080106 L15.8763877,21.598656 L21.2109017,25.5080106 C21.9038672,26.0179276 22.4922411,26.1617502 22.9759969,25.7956559 C23.4466853,25.4426374 23.5382096,24.8411984 23.2505696,24.0305608 L21.1455387,17.7677584 L26.5192545,13.9106996 C27.2253139,13.4269171 27.5260212,12.8908656 27.3299054,12.3155589 C27.1468569,11.7664134 26.5977115,11.4918675 25.7347915,11.5049347 L19.1450993,11.5572304 L17.1446599,5.2551782 C16.8831544,4.43148675 16.4778289,4 15.8763877,4 C15.2880404,4 14.882715,4.43148675 14.6081422,5.2551782 L12.6077028,11.5572304 L6.01801057,11.5049347 C5.15509063,11.4918675 4.61902042,11.7664134 4.42289933,12.3155589 C4.23985351,12.8908656 4.54057413,13.4269171 5.23354763,13.9106996 L10.6072634,17.7677584 L8.50223248,24.0305608 C8.2145925,24.8411984 8.30611675,25.4426374 8.77680523,25.7956559 Z" id="Path" stroke="#D27043" fill="#E7E243"></path>
        </g>
    </g>
</svg>