<?xml version="1.0" encoding="UTF-8"?>
<svg width="18px" height="23px" viewBox="0 0 18 23" version="1.1" xmlns="http://www.w3.org/2000/svg" xmlns:xlink="http://www.w3.org/1999/xlink">
    <title>info_pin</title>
    <defs>
        <linearGradient x1="50%" y1="0%" x2="50%" y2="165.149562%" id="linearGradient-1">
            <stop stop-color="#956055" offset="0%"></stop>
            <stop stop-color="#5A5A5A" offset="100%"></stop>
        </linearGradient>
    </defs>
    <g id="Page-1" stroke="none" stroke-width="1" fill="none" fill-rule="evenodd">
        <g id="info_pin">
            <path d="M9,0.5 C11.3472102,0.5 13.4722102,1.45139491 15.0104076,2.98959236 C16.5486051,4.52778981 17.5,6.65278981 17.5,9 C17.5,13.663077 12.0499159,18.8235951 9.00660116,21.3934748 C8.65145549,21.046416 8.28897685,20.6967161 7.9234424,20.3440768 C7.59566807,20.0278655 7.2654272,19.7092777 6.93699877,19.3892208 L6.3999648,18.8624712 C3.37776044,15.8758786 0.5,12.6648343 0.5,9 C0.5,6.65278981 1.45139491,4.52778981 2.98959236,2.98959236 C4.52778981,1.45139491 6.65278981,0.5 9,0.5 Z" id="Oval" stroke="url(#linearGradient-1)" fill="#AB776C"></path>
            <circle id="Oval" fill="#FFFFFF" transform="translate(9.225, 5.825) scale(1, -1) translate(-9.225, -5.825)" cx="9.225" cy="5.825" r="1.575"></circle>
            <path d="M9.225,8.75 C10.1262137,8.75 10.8786168,9.43743398 10.9597817,10.3349853 C11.0375379,11.1945563 11.0764032,11.8328953 11.0764032,12.25 C11.0764032,12.6671047 11.0375379,13.3054437 10.9598073,14.165017 L10.9597817,14.1650147 C10.8786168,15.062566 10.1262137,15.75 9.225,15.75 C8.32450857,15.75 7.57135234,15.0659289 7.48498159,14.1695892 C7.39614264,13.2474969 7.35171657,12.6076342 7.35171657,12.25 C7.35171657,11.8923658 7.39614264,11.2525031 7.48499477,10.3304121 L7.48498159,10.3304108 C7.57135234,9.43407105 8.32450857,8.75 9.225,8.75 Z" id="Rectangle" fill="#FFFFFF" transform="translate(9.2141, 12.25) scale(1, -1) translate(-9.2141, -12.25)"></path>
        </g>
    </g>
</svg>