<?xml version="1.0" encoding="UTF-8"?>
<svg width="18px" height="23px" viewBox="0 0 18 23" version="1.1" xmlns="http://www.w3.org/2000/svg" xmlns:xlink="http://www.w3.org/1999/xlink">
    <title>info_pin</title>
    <defs>
        <linearGradient x1="50%" y1="0%" x2="50%" y2="165.149562%" id="linearGradient-1">
            <stop stop-color="#956055" offset="0%"></stop>
            <stop stop-color="#5A5A5A" offset="100%"></stop>
        </linearGradient>
    </defs>
    <g id="Page-1" stroke="none" stroke-width="1" fill="none" fill-rule="evenodd">
        <g id="info_pin">
            <path d="M9,0.5 C11.3472102,0.5 13.4722102,1.45139491 15.0104076,2.98959236 C16.5486051,4.52778981 17.5,6.65278981 17.5,9 C17.5,13.663077 12.0499159,18.8235951 9.00660116,21.3934748 C8.65145549,21.046416 8.28897685,20.6967161 7.9234424,20.3440768 C7.59566807,20.0278655 7.2654272,19.7092777 6.93699877,19.3892208 L6.3999648,18.8624712 C3.37776044,15.8758786 0.5,12.6648343 0.5,9 C0.5,6.65278981 1.45139491,4.52778981 2.98959236,2.98959236 C4.52778981,1.45139491 6.65278981,0.5 9,0.5 Z" id="Oval" stroke="url(#linearGradient-1)" fill="#AB776C"></path>
            <circle id="Oval" fill="#FFFFFF" cx="9.225" cy="14.625" r="1.575"></circle>
            <path d="M9.225,2.25 C10.1168461,2.25 10.8571144,2.93912592 10.9208517,3.82869155 C11.024558,5.27587265 11.0764032,6.32464252 11.0764032,6.975 C11.0764032,7.62535748 11.024558,8.67412735 10.9208676,10.1213096 L10.9208517,10.1213084 C10.8571144,11.0108741 10.1168461,11.7 9.225,11.7 C8.33336926,11.7 7.59249996,11.0126257 7.52580131,10.1234932 C7.40974811,8.57630284 7.35171657,7.52680537 7.35171657,6.975 C7.35171657,6.42319463 7.40974811,5.37369716 7.52581118,3.82650759 L7.52580131,3.82650685 C7.59249996,2.93737431 8.33336926,2.25 9.225,2.25 Z" id="Rectangle" fill="#FFFFFF"></path>
        </g>
    </g>
</svg>